<svg width="27" height="25" viewBox="0 0 27 25" fill="none" xmlns="http://www.w3.org/2000/svg">
<path d="M23.8634 13.7038C23.9149 13.3136 23.9492 12.9078 23.9492 12.4864C23.9492 12.065 23.9149 11.6592 23.8463 11.269L26.7451 9.20871C27.0024 9.02142 27.071 8.67804 26.9166 8.41271L24.1722 4.08929C24.0006 3.80835 23.6404 3.7147 23.3317 3.80835L19.9183 5.05699C19.1979 4.55753 18.4432 4.15172 17.6027 3.83957L17.0881 0.530671C17.0367 0.218512 16.7451 0 16.402 0H10.9132C10.5701 0 10.2957 0.218512 10.2442 0.530671L9.72964 3.83957C8.88916 4.15172 8.11729 4.57314 7.41403 5.05699L4.00065 3.80835C3.6919 3.69909 3.3317 3.80835 3.16017 4.08929L0.415747 8.41271C0.24422 8.69365 0.312831 9.02142 0.587274 9.20871L3.48607 11.269C3.41746 11.6592 3.366 12.0806 3.366 12.4864C3.366 12.8922 3.40031 13.3136 3.46892 13.7038L0.570121 15.7641C0.312831 15.9514 0.24422 16.2947 0.398594 16.5601L3.14302 20.8835C3.31454 21.1644 3.67475 21.2581 3.9835 21.1644L7.39688 19.9158C8.11729 20.4153 8.872 20.8211 9.71248 21.1332L10.2271 24.4421C10.2957 24.7543 10.5701 24.9728 10.9132 24.9728H16.402C16.7451 24.9728 17.0367 24.7543 17.071 24.4421L17.5856 21.1332C18.426 20.8211 19.1979 20.3996 19.9012 19.9158L23.3145 21.1644C23.6233 21.2737 23.9835 21.1644 24.155 20.8835L26.8994 16.5601C27.071 16.2791 27.0024 15.9514 26.7279 15.7641L23.8634 13.7038ZM13.6576 17.1688C10.8274 17.1688 8.5118 15.0617 8.5118 12.4864C8.5118 9.91107 10.8274 7.80399 13.6576 7.80399C16.4878 7.80399 18.8034 9.91107 18.8034 12.4864C18.8034 15.0617 16.4878 17.1688 13.6576 17.1688Z" fill="#255A95"/>
</svg>
